HIERARCHY
ROOT Hips
{
	OFFSET 0.000000 0.000000 0.000000 
	CHANNELS 6 Xposition Yposition Zposition Yrotation Zrotation Xrotation 
	JOINT Lumbar
	{
		OFFSET 0.000000 0.000000 0.000000 
		CHANNELS 3 Zrotation Xrotation Yrotation
		JOINT Neck
		{
			OFFSET 0.000000 0.445665 0.000000 
			CHANNELS 3 Zrotation Xrotation Yrotation
			End Site
			{
				OFFSET 0.000000 0.227535 0.000000 
			}
		}
		JOINT RightShoulder
		{
			OFFSET 0.019635 0.377685 0.194865 
			CHANNELS 3 Zrotation Xrotation Yrotation
			JOINT RightElbow
			{
				OFFSET 0.000000 -0.243375 0.000000 
				CHANNELS 2 Zrotation Yrotation
				JOINT RightWrist
				{
					OFFSET 0.000000 -0.264825 0.000000 
					CHANNELS 2 Zrotation Xrotation
					End Site
					{
						OFFSET 0.006600 -0.176220 0.000990 
					}
				}
			}
		}
		JOINT LeftShoulder
		{
			OFFSET 0.019635 0.377685 -0.194865 
			CHANNELS 3 Zrotation Xrotation Yrotation
			JOINT LeftElbow
			{
				OFFSET 0.000000 -0.243375 0.000000 
				CHANNELS 2 Zrotation Yrotation
				JOINT LeftWrist
				{
					OFFSET 0.000000 -0.264825 0.000000 
					CHANNELS 2 Zrotation Xrotation
					End Site
					{
						OFFSET 0.006600 -0.176220 -0.000990 
					}
				}
			}
		}
	}
	JOINT RightHip
	{
		OFFSET 0.052140 -0.069960 0.075570 
		CHANNELS 3 Zrotation Xrotation Yrotation
		JOINT RightKnee
		{
			OFFSET 0.000000 -0.402270 0.000000 
			CHANNELS 1 Zrotation
			JOINT RightAnkle
			{
				OFFSET 0.000000 -0.404085 0.000000 
				CHANNELS 3 Zrotation Xrotation Yrotation
				End Site
				{
					OFFSET 0.204105 -0.089430 0.008415 
				}
			}
		}
	}
	JOINT LeftHip
	{
		OFFSET 0.052140 -0.069960 -0.075570 
		CHANNELS 3 Zrotation Xrotation Yrotation
		JOINT LeftKnee
		{
			OFFSET 0.000000 -0.402270 0.000000 
			CHANNELS 1 Zrotation
			JOINT LeftAnkle
			{
				OFFSET 0.000000 -0.404085 0.000000 
				CHANNELS 3 Zrotation Xrotation Yrotation
				End Site
				{
					OFFSET 0.204105 -0.089430 -0.008415 
				}
			}
		}
	}
}
MOTION
Frames: 33
Frame Time: 0.02
-3e-05 -0.0001 0.00011 -172.90967 -29.89742 2.23633 45.97864 -0.96872 -8.01743 -9.18416 3.00218 -0.91688 -20.09863 -0.17966 -25.8545 26.6344 165.35437 27.21169 14.2681 -22.33933 7.63441 -4.37535 30.28351 -82.42921 8.69417 1.68292 31.75583 -0.24498 -1.16199 -20.01268 -6.54806 -3.53929 -3.96711 35.79809 2.31202 4.34217 -24.14369 -6.72864 1.67597 3.04717
-0.00061 -0.00014 -3e-05 -172.94883 -29.8838 2.23861 46.00753 -0.98625 -7.97137 -9.23565 2.99018 -0.918 -20.29182 -0.70719 -23.74396 26.87313 158.37265 25.36209 13.00038 -22.34597 7.3649 -3.3919 30.4357 -86.803 10.02611 0.97158 31.68469 -0.39389 -2.06709 -20.006 -6.51266 -3.4595 -3.92241 35.74189 2.34244 4.44392 -24.14175 -6.72791 1.6656 3.04262
-0.0012 -0.00017 -0.00017 -172.98789 -29.87011 2.24087 46.03633 -1.00377 -7.92543 -9.28726 2.97824 -0.91912 -20.48453 -1.2325 -21.642 27.11134 151.4213 23.52065 11.73805 -22.35278 7.09652 -2.41236 30.58754 -91.15772 11.35222 0.26332 31.6136 -0.54229 -2.96933 -19.99935 -6.47736 -3.37994 -3.87786 35.6857 2.37279 4.54531 -24.13981 -6.72717 1.65527 3.03809
-0.00178 -0.00021 -0.00032 -173.02693 -29.85652 2.24315 46.06512 -1.02125 -7.87951 -9.33859 2.96628 -0.92023 -20.67714 -1.75828 -19.53839 27.34938 144.4629 21.67723 10.47454 -22.35942 6.8279 -1.43212 30.7393 -95.51693 12.6797 -0.44566 31.54268 -0.69073 -3.87163 -19.99269 -6.44207 -3.30039 -3.8333 35.62966 2.40311 4.64674 -24.13788 -6.72644 1.64493 3.03356
-0.00236 -0.00025 -0.00046 -173.06607 -29.843 2.24546 46.09402 -1.03875 -7.83348 -9.38984 2.95427 -0.92135 -20.87019 -2.28659 -17.42516 27.58782 137.46977 19.82449 9.20489 -22.36584 6.55802 -0.44755 30.89132 -99.89786 14.01386 -1.15814 31.4717 -0.8397 -4.77682 -19.98603 -6.40667 -3.22059 -3.7886 35.57363 2.4335 4.74854 -24.13594 -6.72571 1.63455 3.02901
-0.00294 -0.00029 -0.0006 -173.10497 -29.82893 2.24759 46.12263 -1.0563 -7.7877 -9.44226 2.94246 -0.92247 -21.06221 -2.8056 -15.34685 27.82553 130.60597 18.00673 7.9579 -22.37347 6.29279 0.52146 31.04276 -104.1976 15.32311 -1.85753 31.40037 -0.9869 -5.67284 -19.97938 -6.37159 -3.14154 -3.74435 35.51709 2.46376 4.84907 -24.13403 -6.72495 1.62431 3.02452
-0.00352 -0.00033 -0.00074 -173.14428 -29.81608 2.25009 46.15172 -1.07372 -7.74149 -9.49193 2.93027 -0.92358 -21.25604 -3.34251 -13.20139 28.0645 123.49282 16.12141 6.6673 -22.37863 6.01859 1.52034 31.19529 -108.65415 16.6804 -2.58222 31.32997 -1.13748 -6.58623 -19.97271 -6.33592 -3.06109 -3.69924 35.46176 2.49426 4.95205 -24.13205 -6.72426 1.6138 3.01991
-0.00411 -0.00037 -0.00088 -173.18325 -29.80194 2.25226 46.18049 -1.09129 -7.69566 -9.54475 2.91839 -0.9247 -21.4483 -3.86335 -11.11635 28.30221 116.60356 14.29689 5.41581 -22.38609 5.75248 2.49233 31.34665 -112.96939 17.99455 -3.28407 31.25848 -1.28499 -7.48376 -19.96607 -6.30078 -2.98192 -3.65491 35.40509 2.52451 5.05274 -24.13014 -6.7235 1.60355 3.01542
-0.00469 -0.00041 -0.00103 -173.22168 -29.78685 2.25399 46.20839 -1.10892 -7.65035 -9.59907 2.90703 -0.92584 -21.63835 -4.36294 -9.11064 28.5389 110.01068 12.55231 4.21624 -22.39633 5.49693 3.42913 31.49732 -117.09965 19.2516 -3.95619 31.18649 -1.42862 -8.36167 -19.95942 -6.26633 -2.9043 -3.61157 35.3476 2.55456 5.15081 -24.1283 -6.72269 1.59355 3.01106
-0.00526 -0.00045 -0.00117 -173.26286 -29.77909 2.25812 46.23989 -1.12583 -7.60218 -9.63769 2.8931 -0.92689 -21.84022 -4.97995 -6.66494 28.78304 101.78077 10.36466 2.73028 -22.39048 5.18264 4.56144 31.65421 -122.25743 20.82404 -4.79392 31.11987 -1.59421 -9.35177 -19.95267 -6.22802 -2.81774 -3.56264 35.29729 2.58609 5.26451 -24.12602 -6.72225 1.58192 3.00589
-0.00586 -0.00048 -0.00131 -173.29847 -29.75469 2.25726 46.26467 -1.14448 -7.55996 -9.7139 2.88435 -0.92813 -22.01772 -5.35237 -5.13696 29.01043 96.96061 9.10091 1.84062 -22.41862 4.991 5.28571 31.79652 -125.27112 21.73957 -5.28578 31.04037 -1.71368 -10.10557 -19.94626 -6.1978 -2.75005 -3.52546 35.23027 2.61429 5.34488 -24.1247 -6.72097 1.57385 3.00247
-0.00651 -0.00052 -0.00144 -173.31661 -29.69482 2.242 46.2629 -1.16611 -7.53521 -9.85564 2.89218 -0.92984 -22.12273 -5.02104 -6.23906 29.20035 101.9502 10.48565 2.66841 -22.54052 5.14991 4.84203 31.91165 -122.14375 20.76305 -4.78951 30.93876 -1.70354 -10.20119 -19.93974 -6.19042 -2.73446 -3.52097 35.131 2.63509 5.33677 -24.12567 -6.71791 1.57467 3.00353
-0.0072 -0.00055 -0.00157 -173.32945 -29.61699 2.22182 46.25541 -1.18969 -7.51633 -10.0407 2.9049 -0.93177 -22.20405 -4.45018 -8.24187 29.3722 110.27781 12.77603 4.07981 -22.69646 5.42958 3.99719 32.01064 -116.90909 19.14236 -3.95295 30.82254 -1.64765 -10.06122 -19.93375 -6.19106 -2.73776 -3.52819 35.01326 2.65237 5.29538 -24.12769 -6.71391 1.57914 3.00636
-0.00789 -0.00059 -0.00169 -173.34633 -29.53995 2.2044 46.25642 -1.21368 -7.49393 -10.23224 2.91366 -0.9336 -22.30019 -4.01022 -9.75968 29.54636 116.78444 14.57942 5.1713 -22.83651 5.64459 3.36787 32.10754 -112.80949 17.87625 -3.29784 30.70334 -1.6147 -10.03556 -19.92822 -6.18758 -2.73218 -3.52974 34.89404 2.66991 5.26637 -24.12944 -6.70994 1.58264 3.00865
-0.00849 -0.00061 -0.00184 -173.35684 -29.49146 2.1849 46.23443 -1.23269 -7.47475 -10.31909 2.92923 -0.93533 -22.38019 -3.47667 -11.59918 29.74409 124.58892 16.70749 6.49531 -22.97841 5.90032 2.59901 32.24062 -107.96511 16.35236 -2.52971 30.62144 -1.57261 -9.9793 -19.9198 -6.18607 -2.72785 -3.53274 34.81309 2.69247 5.24587 -24.13025 -6.70755 1.58364 3.01001
-0.00928 -0.00067 -0.00194 -173.37872 -29.38244 2.16839 46.25657 -1.26195 -7.45074 -10.62711 2.93245 -0.93748 -22.48689 -3.08131 -12.98159 29.89007 130.4717 18.36835 7.47273 -23.12452 6.10089 2.02383 32.29902 -104.16199 15.20699 -1.91531 30.46248 -1.53866 -9.93035 -19.91744 -6.18245 -2.72543 -3.53552 34.65227 2.70454 5.2035 -24.13334 -6.7018 1.59023 3.01351
-0.01066 -0.00081 -0.00195 -173.4386 -29.08403 2.16278 46.42213 -1.32394 -7.40803 -11.59406 2.89484 -0.93929 -22.68372 -3.12718 -12.88154 29.88298 130.30843 18.5653 7.35408 -23.27243 6.11293 2.09591 32.11505 -103.85068 15.31777 -1.81875 30.06009 -1.53901 -9.96515 -19.93251 -6.17017 -2.72335 -3.53458 34.24012 2.68146 5.07637 -24.14182 -6.68565 1.61542 3.02448
-0.0122 -0.00099 -0.00191 -173.50896 -28.73077 2.16007 46.62813 -1.39521 -7.36107 -12.76936 2.84578 -0.94176 -22.90579 -3.32054 -12.28955 29.82677 128.08645 18.25398 6.86636 -23.42269 6.06822 2.37177 31.86291 -104.64338 15.82316 -1.8869 29.5876 -1.54903 -10.01446 -19.95351 -6.15567 -2.7226 -3.53305 33.75543 2.64912 4.93392 -24.15267 -6.66642 1.64539 3.0372
-0.01361 -0.00114 -0.00187 -173.57126 -28.41953 2.15507 46.80289 -1.45906 -7.31851 -13.8129 2.80544 -0.94493 -23.10991 -3.44543 -11.92303 29.8031 126.74768 18.14061 6.54391 -23.57406 6.05166 2.5482 31.66964 -104.86324 16.11168 -1.87307 29.16892 -1.55417 -10.05325 -19.97131 -6.14273 -2.72143 -3.53194 33.32638 2.6258 4.82048 -24.1629 -6.64946 1.67049 3.04778
-0.01529 -0.00132 -0.00191 -173.64794 -28.03362 2.15399 47.03335 -1.53668 -7.26539 -15.0216 2.74994 -0.94404 -23.34244 -3.56693 -11.58201 29.73725 125.72207 18.18843 6.24897 -23.72141 6.02232 2.74943 31.36243 -105.30351 16.53139 -1.87727 28.65475 -1.55966 -10.10017 -19.99137 -6.12766 -2.72014 -3.5306 32.79851 2.58262 4.61498 -24.17129 -6.62872 1.70696 3.06398
-0.01643 -0.00146 -0.00178 -173.69644 -27.79282 2.14555 47.15547 -1.5876 -7.23361 -15.92625 2.72387 -0.95156 -23.51973 -3.73503 -11.0567 29.74583 123.54264 17.78047 5.80557 -23.87224 6.01338 2.94007 31.27106 -105.58211 16.78596 -1.88767 28.3259 -1.56743 -10.13691 -20.00801 -6.11648 -2.71916 -3.52945 32.46256 2.57795 4.59528 -24.18401 -6.61521 1.721 3.06899
-0.01608 -0.00154 -0.00118 -173.67163 -27.94545 2.11557 46.98618 -1.56423 -7.25807 -16.01782 2.77613 -0.98383 -23.55828 -3.98537 -10.16027 29.98935 118.39636 16.12528 5.00408 -24.07478 5.99822 3.16335 31.83999 -105.09315 16.44058 -1.87593 28.50068 -1.57857 -10.1413 -20.01465 -6.11584 -2.71877 -3.52889 32.64731 2.68784 5.11662 -24.20865 -6.62173 1.67055 3.04157
-0.01516 -0.00158 -0.00042 -173.61703 -28.24956 2.07821 46.70367 -1.51336 -7.30472 -15.7824 2.85925 -1.02424 -23.53651 -4.28083 -9.08743 30.30642 112.19456 14.04449 4.07002 -24.27263 6.01898 3.35173 32.61975 -104.42698 15.9281 -1.86696 28.8686 -1.59207 -10.13631 -20.01752 -6.11928 -2.71854 -3.52848 33.03218 2.83571 5.82134 -24.23747 -6.63574 1.59762 3.00303
-0.01447 -0.00162 0.00027 -173.57118 -28.49851 2.04458 46.46083 -1.47395 -7.34377 -15.64455 2.93227 -1.05982 -23.52965 -4.56338 -8.07953 30.57833 106.64781 12.22936 3.21908 -24.4444 6.07308 3.48278 33.27179 -103.88171 15.52567 -1.85693 29.16547 -1.60504 -10.13717 -20.02146 -6.12131 -2.71811 -3.52798 33.34407 2.96232 6.42609 -24.26404 -6.64679 1.53585 2.97031
-0.0139 -0.00172 0.00096 -173.54503 -28.68946 2.00943 46.26719 -1.43922 -7.37265 -15.72587 2.98918 -1.10016 -23.57737 -4.81812 -7.11983 30.89754 100.29791 10.09618 2.25961 -24.73518 5.91654 3.92304 34.05594 -103.18911 14.99003 -1.84882 29.39164 -1.61579 -10.13143 -20.02815 -6.12142 -2.71828 -3.52759 33.58027 3.1055 7.09957 -24.29219 -6.65595 1.4702 2.93439
-0.01295 -0.00168 0.0017 -173.47176 -29.03578 1.97572 45.94612 -1.38814 -7.42748 -15.27483 3.08605 -1.13254 -23.4956 -5.14056 -6.02353 31.13701 95.38797 8.52575 1.49875 -24.77718 6.2068 3.71672 34.61613 -102.76485 14.69032 -1.83872 29.80886 -1.63188 -10.13736 -20.02838 -6.12647 -2.71721 -3.527 34.01919 3.2233 7.67479 -24.31801 -6.67076 1.40733 2.90248
-0.01099 -0.00123 0.00249 -173.26592 -29.79203 1.94703 45.28032 -1.29831 -7.55325 -13.39593 3.29496 -1.14066 -23.08204 -5.62959 -4.60195 31.134 94.7925 8.659 1.32601 -24.13248 7.73112 1.66343 34.50667 -102.96493 15.05183 -1.79159 30.73122 -1.65976 -10.1739 -20.00934 -6.14461 -2.71297 -3.52597 34.99739 3.2615 7.92255 -24.3361 -6.70024 1.35689 2.88453
-0.00869 -0.00064 0.00332 -173.01546 -30.6958 1.92014 44.49442 -1.19312 -7.70354 -11.00035 3.54133 -1.14055 -22.53904 -6.18556 -3.05163 31.05009 95.67783 9.3672 1.35824 -23.23888 9.70123 -1.02557 34.16645 -103.46086 15.65833 -1.74666 31.83404 -1.69317 -10.22209 -19.98424 -6.16754 -2.70753 -3.52475 36.16691 3.2727 8.06618 -24.35168 -6.73497 1.31022 2.87101
-0.0066 -0.00013 0.00415 -172.7918 -31.52122 1.89293 43.77601 -1.09501 -7.83949 -8.86281 3.76452 -1.14442 -22.04668 -6.71715 -1.5545 31.00525 95.84254 9.7848 1.2936 -22.45833 11.46306 -3.38068 33.92989 -103.92712 16.1739 -1.72097 32.83935 -1.72578 -10.26885 -19.96357 -6.18794 -2.70229 -3.52346 37.23154 3.29677 8.2663 -24.36866 -6.76682 1.26218 2.85531
-0.00423 0.00045 0.00492 -172.53961 -32.40188 1.86343 42.99668 -0.99506 -7.98956 -6.60857 4.01478 -1.14759 -21.58274 -7.22769 -0.06558 30.94981 96.16965 10.31113 1.23954 -21.67313 13.25502 -5.93371 33.69902 -103.96551 16.60648 -1.61273 33.9202 -1.75193 -10.30348 -19.93612 -6.20981 -2.69804 -3.52265 38.3822 3.32062 8.43855 -24.38497 -6.8012 1.21158 2.83975
-0.0024 0.00092 0.00583 -172.33657 -33.19774 1.83915 42.32031 -0.8962 -8.11594 -4.48814 4.21712 -1.15013 -21.0347 -7.79388 1.45892 30.90054 96.52505 10.75294 1.2142 -20.84452 15.08345 -8.2164 33.4072 -104.94242 17.26126 -1.6735 34.87976 -1.79196 -10.36063 -19.92086 -6.22988 -2.69203 -3.52105 39.39233 3.33677 8.63614 -24.40169 -6.83121 1.16792 2.82533
-0.002 0.00105 0.00709 -172.28091 -33.74618 1.82921 41.93181 -0.7996 -8.16915 -2.78717 4.27817 -1.15305 -20.24324 -8.52587 3.13096 30.85088 96.59779 10.82589 1.21673 -19.9068 16.95457 -9.67091 32.93032 -108.64405 18.56138 -2.22748 35.49557 -1.87659 -10.52737 -19.9456 -6.24225 -2.6761 -3.51482 40.00146 3.3493 8.97842 -24.42293 -6.84996 1.13871 2.81101
-0.00219 0.00106 0.0085 -172.27635 -34.19881 1.82436 41.6566 -0.70558 -8.19783 -1.25529 4.28954 -1.15556 -19.3801 -9.3054 4.81763 30.81643 96.65358 10.79552 1.24203 -18.94393 18.83589 -10.81752 32.41279 -113.23563 20.05858 -2.94504 35.97502 -1.97382 -10.70856 -19.98205 -6.25282 -2.65928 -3.50818 40.45467 3.35309 9.34114 -24.44413 -6.86371 1.11705 2.79806
